<?xml version="1.0" encoding="utf-8"?>
<!-- Generator: Adobe Illustrator 16.0.0, SVG Export Plug-In . SVG Version: 6.00 Build 0)  -->
<!DOCTYPE svg PUBLIC "-//W3C//DTD SVG 1.1//EN" "http://www.w3.org/Graphics/SVG/1.1/DTD/svg11.dtd">
<svg version="1.1" id="Layer_1" xmlns="http://www.w3.org/2000/svg" xmlns:xlink="http://www.w3.org/1999/xlink" x="0px" y="0px"
	 width="1110px" height="535px" viewBox="0 0 1110 535" enable-background="new 0 0 1110 535" xml:space="preserve">
<g id="new_text">
	<g id="celestia">
		<g>
			<g>
				<g>
					<g>
						<defs>
							<path id="SVGID_1_" d="M109.116,189.508c3.119,4.233-1.002,9.605-2.828,30.629c-1.563,17.965-3.912,22.714-5.943,22.087
								c-3.536-1.092-1.601-4.12-7.857-10.125c-5.326-5.107-11.742-9.085-18.126-9.938c-9.146-1.229-18.515,0.523-28.167,10.502
								c-8.304,8.58-8.602,23.224-8.602,32.212c0,7.768,2.773,18.121,7.123,26.271c4.674,8.764,11.108,15.928,18.392,18.771
								c7.968,3.115,18.015,4.928,27.562,1.561c10.078-3.555,10.252-7.25,13.771-11.402c2.573-3.042,4.794-6.438,6.719-7.157
								c3.561-1.332-2.968,4.627-2.868,22.783c0.098,17.791,2.623,23.501-9.261,19.705c-6.97-2.229-13.573,2.812-34.328,0.948
								c-9.999-0.896-18.177-2.528-29.5-12.464c-10.905-9.563-16.703-24.14-18.213-30.053c-1.512-5.913-4.01-16.199-3.771-31.021
								c0.236-14.807,2.758-26.729,13.573-41.707c9.026-12.5,18.742-20.849,30.098-23.756c9.295-2.382,18.976-1.824,23.676-0.318
								c9.846,3.152,15.699,2.979,18.364-0.3C103.081,191.618,108.191,188.253,109.116,189.508z M124.783,194.925
								c5.501-2.927,20.011-3.301,36.847-0.723c18.084,2.771,32.529,7.188,40.012,10.72c5.868,2.771-8.452,3.584-15.17,6.173
								c-6.716,2.588-11.953,12.469-16.074,33.453c-5.737,29.203-5.455,49.225-5.217,66.799c9.096,0.241,11.329,3.069,20.613,1.765
								c9.092-1.28,13.974-6.123,18.186-12.781c2.986-4.726,6.893-18.623,10.134-14.952c4.216,4.771,7.063,11.55,6.977,26.841
								c-0.097,16.646-0.781,18.857-2.018,25.503c-6.097,0-14.817-4.023-35.681-3.926c-18.895,0.091-23.302,2.642-36.43,4.066
								c-11.716,1.271-14.047,0.525-15.938-0.094c0.71-2.219,4.149-8.554,7.982-21.889c7.136-24.823,8.205-54.82,5.502-86.505
								c-0.83-9.729-7.076-22.355-11.999-24.864C128.624,202.529,121.448,196.699,124.783,194.925z M890.879,193.79
								c5.502-2.928,20.01-3.302,36.844-0.723c18.086,2.77,32.531,7.188,40.016,10.719c5.865,2.771-8.453,3.585-15.172,6.173
								c-6.715,2.588-11.951,12.469-16.074,33.452c-5.736,29.203-5.453,49.225-5.215,66.799c9.094,0.242,11.328,3.07,20.611,1.763
								c9.092-1.277,13.977-6.124,18.188-12.778c2.986-4.727,6.891-18.622,10.133-14.952c4.217,4.771,7.064,11.551,6.979,26.84
								c-0.1,16.646-0.781,18.856-2.021,25.504c-6.096,0-14.816-4.026-35.678-3.926c-18.895,0.09-23.301,2.641-36.43,4.063
								c-11.717,1.271-14.051,0.527-15.939-0.092c0.709-2.219,4.152-8.553,7.984-21.889c7.137-24.823,8.205-54.819,5.502-86.504
								c-0.83-9.729-7.076-22.354-12-24.864C894.719,201.394,887.545,195.563,890.879,193.79z M260.411,246.915
								c-2.358,12.607-1.85,23.572-1.753,31.25c0.102,8.025,3.708,14.727,10.718,19.791c7.036,5.084,18.07,6.672,25.688-0.406
								c7.617-7.078,9.646-16.242,10.055-28.459c0.421-12.577,0.981-20.07-2.063-30.354c-3.045-10.284-6.131-13.714-9.276-16.234
								c-3.147-2.52-10.492-3.976-18.647-0.253C266.181,226.334,262.649,234.95,260.411,246.915L260.411,246.915z M274.209,194.26
								c9.088-0.937,13.68,0.652,18.446,2.653c4.768,2.001,10.127,4.825,15.103,11.043c4.975,6.218,7.341,10.257,10.349,19.396
								c3.251,9.893,4.904,15.512,5.203,32.306c0.313,17.566-0.61,25.562-4.166,40.016c-3.785,15.403-8.922,23.881-21.858,30.604
								c-6.16,3.198-15.376,4.73-29.979,4.261c-9.827-0.317-16.731-3.994-24.419-11.73c-5.104-5.139-10.321-15.934-11.146-20.584
								c-2.021-11.432-2.853-22.193-2.171-40.395c0.524-14.109,2.506-24.539,5.812-33.82c3.067-8.612,7.367-15.796,15.57-23.465
								C259.18,196.849,265.122,195.197,274.209,194.26z M323.743,203.201c2.238-0.528,5.227,2.768,29.715-3.773
								c23.816-6.359,36.34-7.482,32.529-2.351c-4.867,6.559-10.351,12.523-12.113,22.501c-4.891,27.64-4.889,60.339,8.931,83.564
								c3.321,5.582,10.858,7.7,15.891,3.481c5.03-4.219,8.706-12.521,6.879-58.896c-1.563-39.705-4.71-52.82-10.502-58.308
								c-3.702-3.507-10.452-10.269-9.028-11.688c4.688-4.679,23.836-3.271,32.992-1.257c8.29,1.823,16.738,1.163,24.78,2.291
								c-4.783,2.805-7.582,5.563-9.587,13.64c-2.466,9.923-4.48,18.643-5.128,42.024c-0.619,22.443-0.882,42.137-2.284,56.888
								c-1.27,13.317-4.564,26.751-13.096,34.854c-7.562,7.188-25.882,13.163-36.497,8.903
								c-10.281-4.126-17.596-16.184-22.774-45.228c-6.561-36.781-9.433-49.949-15.908-66.897
								C336.451,217.491,328.803,209.699,323.743,203.201z M492.799,224.929c-2.271,10.466-2.625,19.416-3.21,34.396
								c-0.33,8.437-1.119,21.914,0.791,29.799c2.921,12.062,7.747,18.283,12.646,18.361c11.28,0.182,20.335-14.563,23.814-23.906
								c3.467-9.312,0.891-37.506-4.647-52.771C516.552,215.256,494.958,214.984,492.799,224.929z M446.887,187.688
								c2.943-7.022,27.347-0.352,34.967,1.331c7.929,1.752,17.985,4.883,30.881,9.649c16.018,5.924,24.157,13.099,30.432,25.517
								c14.869,29.435,7.525,62.08-5.545,79.163c-16.224,21.205-31.63,26.188-48.453,28.095c-12.422,1.403-24.846,3.33-37.268,5.521
								c-8.99,1.584-6.076-4.502-1.563-7.72c5.634-4.02,10.717-9.381,14.232-25.303c1.549-7.012,0.508-31.975,0.508-47.825
								c0-18.396,0.773-34.309-6.563-50.025C451.182,190.368,446.349,188.972,446.887,187.688z M714.449,226.793
								c-2.271,10.465-2.623,19.417-3.209,34.393c-0.33,8.438-1.119,21.913,0.789,29.8c2.922,12.063,7.748,18.28,12.646,18.359
								c11.281,0.186,20.334-14.56,23.814-23.902c3.471-9.313,0.891-37.51-4.646-52.771
								C738.205,217.12,716.61,216.848,714.449,226.793z M668.539,189.552c2.943-7.023,27.348-0.353,34.967,1.331
								c7.928,1.751,17.986,4.88,30.881,9.649c16.021,5.923,24.158,13.099,30.436,25.516c14.865,29.432,7.521,62.08-5.549,79.164
								c-16.223,21.203-31.631,26.186-48.451,28.09c-12.424,1.406-24.846,3.333-37.27,5.522c-8.99,1.584-6.076-4.503-1.561-7.72
								c5.635-4.021,10.719-9.384,14.23-25.304c1.549-7.012,0.51-31.973,0.51-47.826c0-18.394,0.771-34.307-6.561-50.023
								C672.834,192.232,668,190.835,668.539,189.552z M644.807,187.696c5.805-4.449,8.531-4.734,11.023-4.65
								c-0.74,4.172-5.066,10.595-2.502,19.771c2.627,9.39,1.711,15.566-0.662,24.109c-2.873-1.939-3.164-6.48-9.561-10.391
								c-7.855-4.803-18.609-7.063-27.01-4.86c-10.52,2.759-16.697,10.165-14.885,16.366c2.479,8.458,9.734,12.289,21.527,14.781
								c8.307,1.757,21.424,6.361,28.469,13.591c8.23,8.446,10.584,19.587,9.486,33.396c-1.061,13.323-2.547,21.875-11.289,34.096
								c-7.666,10.713-16.758,13.744-31.939,13.914c-8.58,0.097-16.262-1.73-23.727-9.193c-9.486-9.48-7.828-16.391-16.846-31.139
								c-4.283-7.006-11.654-8.227-13.143-14.425c5.857-1.146,12.02-3.104,30.621-3.569c18.6,0.425,18.402,1.561,13.131,8.621
								c-5.736,7.681-6.586,14.1-2.662,18.627c3.389,3.91,11.117,5.199,17.105,2.238c5.014-2.479,11.57-9.65,11.752-22.213
								c0.188-13.466-8.111-16.854-25.73-23.104c-16.053-5.693-26.391-11.682-30.287-21.281
								c-4.527-11.162-3.598-28.488,4.066-39.942c9.916-14.823,22.4-17.654,33.17-16.474c14.08,1.546,12.584,5.079,17.551,6.11
								C635.93,192.796,639.215,191.984,644.807,187.696z M825.889,289.604c-4.047,0.104-9.682,1.306-10.688,2.373
								c-0.564,0.602-1.541,2.008-1.303,6.154c0.303,5.251,0.723,10.774,4.98,16.697c3.77,5.234,5.295,6.186,6.549,7.244
								c0.674,0.565,0.646,1.438,0.301,2.235c-0.299,0.691-2.055,1.329-4.287,1.73c-2.82,0.507-16.371,1.15-24.01,0.589
								c-15.553-1.145-19.635-3.018-22.52-4.585c-0.617-0.336-1.271-5.711,4.168-12.665c5.584-7.142,10.342-11.062,13.701-19.105
								c3.383-8.104,8.322-21.168,10.742-31.438c4.008-17.019,5.813-29.574,5.621-38.231c-0.174-8.02-1.941-9.273-5.846-12.265
								c-3.053-2.338-7.119-3.502-9.428-4.551c-2.248-1.021-3.887-2.605-3.518-3.103c1.008-1.34,3.207-3.664,11.475-3.69
								c9.973-0.036,16.604-0.361,29.463-5.979c11.533-5.04,14.826-4.444,16.301-2.529c1.551,2.017,3.189,11.712,4.242,25.778
								c1.355,18.127,3.723,36.466,6.328,53.486c2.91,19.008,6.613,36.628,14.52,53.469c3.324,7.083,8.668,12.099,12.871,18.099
								c0.592,0.841,0.182,2.062-0.721,2.354c-3.424,1.11-11.088,0.018-15.061-0.243c-10.285-0.674-16.662,0.283-26.648,2.429
								c-3.439,0.738-8.709,2.604-9.916,3.062c-1.086,0.412-3.789,0.877-4.447,0.445c-1.748-1.146,0.518-4.274,1.016-4.985
								c1.393-1.98,2.223-3.023,5.283-7.571c3.063-4.548,7.355-12.68,7.316-24.081c-0.023-8.488-0.871-16.584-1.75-20.388
								C835.561,289.519,832.018,289.45,825.889,289.604z M835.846,232.96c-3.779,1.121-8.529,8.758-11.588,19.413
								c-3.648,12.719-5.65,20.852-5.65,20.852c0.436,0,5.938-0.009,9.979-0.102c4.455-0.101,8.471-0.385,10.23-0.662
								C837.944,258.657,836.582,245.705,835.846,232.96L835.846,232.96z M1095.338,194.677c1.59,0.978,3.188,7.771,4.951,25.393
								c2.168,21.672,0.395,26.062-1.051,27.007c-0.791,0.517-2.369-3.335-6.627-8.445c-3.654-4.383-8.262-6.336-15.967-9.258
								c-8.84-3.354-31.336-7.384-40.25-6.103c0.563,2.207,1.172,7.188,1.479,15.407c0.188,5.028,0.322,13.784,0.49,16.063
								c7.201,1.72,15.729-0.066,20.156-1.707c7.898-2.926,9.428-7.935,10.854-6.996c1.627,1.064,3.396,7.331,0.771,16.607
								c-3.098,10.939,1.518,19.09,0.889,21.581c-0.459,1.826-7.789-4.588-13.646-5.801c-8.693-1.801-17.713-1.021-19.75-1.021
								c-1.133,10.427-1.592,25.771-6.49,37.289c4.711,1.361,13.947,1.11,29.979,0.138c12.98-0.79,23.467-13.036,27.322-19.255
								c3.299-5.316,7.418-8.233,8.182-6.591c2.189,4.728,1.283,14.267,0.467,21.312c-0.814,7.045-3.006,17.932,0.717,26.633
								c-9.482,1.248-16.668,1.646-47.719-0.293c-24.631-1.535-37.215-1.617-45.313-0.296c-5.563,0.907-8.34,0.163-7.74-1.255
								c3.563-8.404,12.053-23.564,15.451-47.014c2.854-19.654,1.777-50.991-3.588-67.411c-0.818-2.511-4.172-11.374-12.873-22.217
								c5.238,0,11.115,0.31,25.771,2.004c14.658,1.691,20.523,2.372,38.021,3.981c17.496,1.612,22.549-2.21,27.078-5.135
								C1089.539,197.594,1092.77,193.104,1095.338,194.677z"/>
						</defs>
						<clipPath id="SVGID_2_">
							<use xlink:href="#SVGID_1_"  overflow="visible"/>
						</clipPath>
						
							<linearGradient id="blue_1_" gradientUnits="userSpaceOnUse" x1="-17.2742" y1="814.2852" x2="-17.2742" y2="633.1592" gradientTransform="matrix(1 0 0 -1 572.541 984.0645)">
							<stop  offset="0.0061" style="stop-color:#1398D5"/>
							<stop  offset="1" style="stop-color:#2F67B1"/>
						</linearGradient>
						
							<rect id="blue_4_" x="-21.859" y="169.78" clip-path="url(#SVGID_2_)" fill="url(#blue_1_)" width="1154.251" height="181.125"/>
					</g>
				</g>
			</g>
		</g>
	</g>
	<g id="cel_outline">
		<g id="g4664_2_" transform="matrix(1 0 0 -1 0 6552)">
			
				<linearGradient id="SVGID_3_" gradientUnits="userSpaceOnUse" x1="-509.8347" y1="23517.3184" x2="-509.8347" y2="23362.7891" gradientTransform="matrix(1 0 0 1 572.541 -17151.0645)">
				<stop  offset="0.7152" style="stop-color:#2F66B1"/>
				<stop  offset="1" style="stop-color:#1E427F"/>
			</linearGradient>
			<path fill="url(#SVGID_3_)" d="M73.721,6211.724c-2.971,0-6.111,0.146-9.338,0.438c-9.938,0.894-19.171,2.509-31.495,13.317
				c-11.387,9.988-17.602,25.183-19.296,31.816c-1.341,5.252-4.131,16.182-3.879,31.945c0.242,15.144,2.708,27.732,14.235,43.699
				c10.063,13.938,20.554,22.146,32.063,25.097c4.414,1.13,9.273,1.728,14.054,1.728c4.503,0,8.607-0.521,11.562-1.465
				c4.348-1.394,7.869-2.1,10.469-2.1l0,0c2.042,0,3.427,0.43,4.111,1.273c2.648,3.262,8.217,8.779,12.274,8.779
				c1.401,0,2.658-0.615,3.448-1.688c2.68-3.635,1.932-7.396,0.689-13.633c-0.873-4.396-2.069-10.416-2.85-19.375
				c-1.842-21.189-4.727-25.338-9.087-25.338c-0.464,0-0.927,0.068-1.376,0.209c-3.211,0.992-4.192,3.184-4.98,4.939
				c-0.671,1.494-1.506,3.354-4.269,6.002c-5.337,5.121-11.077,8.316-16.168,8.998c-1.538,0.207-3.03,0.313-4.438,0.313
				c-7.699,0-14.293-3.106-20.748-9.778c-7.615-7.869-7.615-22.666-7.615-29.776c0-7.205,2.697-17.103,6.711-24.627
				c4.644-8.701,10.529-14.795,16.576-17.158c9.054-3.541,17.812-4.101,25.124-1.521c6.646,2.345,8.034,4.396,9.954,7.235
				c0.641,0.944,1.365,2.019,2.306,3.129c0.642,0.756,1.258,1.535,1.854,2.287c2.131,2.688,3.973,5.013,6.312,5.888
				c0.741,0.276,1.344,0.399,1.948,0.399c1.272,0,2.413-0.578,3.13-1.586c1.244-1.748,0.62-3.541-0.103-5.619
				c-1.108-3.188-3.173-9.127-3.116-19.235c0.016-2.91,0.098-5.502,0.17-7.787c0.232-7.356,0.373-11.799-2.278-14.537
				c-1.296-1.34-3.056-2.019-5.229-2.019c-1.688,0-3.748,0.405-6.488,1.283c-2.202,0.703-4.849,0.371-8.854-0.233
				C85.25,6212.447,80.451,6211.724,73.721,6211.724z M70.067,6352.765c-4.202,0-8.46-0.521-12.313-1.508
				c-9.861-2.524-19.062-9.855-28.128-22.414c-10.454-14.478-12.691-25.93-12.912-39.713c-0.235-14.828,2.396-25.145,3.663-30.102
				c1.214-4.753,6.657-19.102,17.13-28.288c10.775-9.453,18.196-10.774,27.504-11.608c3.021-0.271,5.95-0.408,8.712-0.408
				c6.204,0,10.718,0.683,14.344,1.229c2.583,0.392,4.813,0.728,6.984,0.728c1.821,0,3.473-0.242,5.041-0.744
				c1.978-0.631,3.441-0.951,4.356-0.951c0.104,0,0.186,0.004,0.248,0.01c0.521,1.248,0.385,5.523,0.264,9.32
				c-0.073,2.33-0.156,4.971-0.174,7.973c-0.023,4.479,0.338,8.271,0.855,11.426c-0.128-0.188-0.257-0.379-0.387-0.57
				c-2.264-3.346-4.604-6.805-13.426-9.916c-8.902-3.141-19.366-2.557-30,1.604c-7.602,2.973-14.775,10.209-20.202,20.383
				c-4.578,8.58-7.535,19.541-7.535,27.922c0,8.029,0,24.74,9.585,34.646c7.756,8.016,16.188,11.91,25.779,11.91
				c1.716,0,3.521-0.125,5.367-0.373c8.396-1.125,15.557-6.539,20.084-10.883c3.121-2.994,4.503-5.414,5.353-7.195
				c0.731,2.535,1.72,7.471,2.541,16.938c0.813,9.342,2.051,15.58,2.957,20.133c0.536,2.695,0.868,4.48,0.962,5.725
				c-1.387-1.037-3.235-2.693-5.079-4.963c-2.081-2.562-5.292-3.857-9.544-3.857l0,0c-3.372,0-7.495,0.795-12.604,2.434
				C77.279,6352.342,73.755,6352.765,70.067,6352.765z"/>
		</g>
		<g id="g4_26_" transform="matrix(1 0 0 -1 0 6552)">
			
				<linearGradient id="SVGID_4_" gradientUnits="userSpaceOnUse" x1="-400.0344" y1="23514.082" x2="-400.0346" y2="23361.0098" gradientTransform="matrix(1 0 0 1 572.541 -17151.0645)">
				<stop  offset="0.7152" style="stop-color:#2F66B1"/>
				<stop  offset="1" style="stop-color:#1E427F"/>
			</linearGradient>
			<path fill="url(#SVGID_4_)" d="M136.821,6209.944c-3.649,0-5.34,0.453-6.89,0.961l-3.305,1.08l1.062,3.312
				c0.239,0.752,0.628,1.646,1.214,3.001c1.488,3.438,3.98,9.195,6.738,18.788c6.475,22.517,8.282,51.194,5.378,85.241
				c-0.803,9.408-6.861,20.395-10.102,22.043c-0.104,0.055-10.445,5.584-10.496,11.354c-0.017,1.867,0.999,3.524,2.715,4.438
				c4.438,2.358,12.111,2.854,17.771,2.854c6.368,0,13.716-0.608,21.251-1.765c19.262-2.951,33.796-7.624,40.977-11.015
				c3.078-1.453,3.525-3.44,3.358-4.854c-0.419-3.55-4.245-4.352-10.583-5.672c-2.851-0.598-6.078-1.271-8.183-2.08
				c-5.627-2.168-10.304-12.552-13.898-30.859c-5.319-27.078-5.399-46.164-5.191-62.84c2.415-0.248,4.336-0.654,6.092-1.027
				c2.181-0.463,4.063-0.861,6.521-0.861c1.251,0,2.578,0.104,4.058,0.312c7.873,1.106,11.978,5.271,15.716,11.188
				c0.769,1.215,1.75,3.477,2.698,5.662c2.796,6.439,5.004,11.527,9.256,11.527c1.403,0,2.739-0.639,3.761-1.794
				c5.659-6.407,7.936-14.858,7.854-29.181c-0.091-15.629-0.693-18.817-1.793-24.608l-0.814-4.371h-2.91
				c-2.471,0-5.092,0.522-8.41,1.188c-5.781,1.154-13.7,2.737-26.502,2.737l-0.75-0.002c-12.03-0.06-18.007-1.132-24.335-2.271
				c-3.47-0.625-7.057-1.271-11.734-1.775C142.9,6210.179,139.459,6209.944,136.821,6209.944z M135.946,6216.956
				c0.271-0.008,0.562-0.012,0.875-0.012c2.385,0,5.577,0.222,9.762,0.676c4.438,0.479,7.901,1.104,11.252,1.707
				c6.635,1.189,12.902,2.316,25.539,2.379l0.783,0.002c13.495,0,22.146-1.729,27.875-2.875c1.564-0.313,2.958-0.592,4.186-0.783
				c0.831,4.524,1.292,8.297,1.37,21.754c0.075,12.979-2.03,18.912-4.626,22.641c-0.94-1.697-2.06-4.27-2.821-6.025
				c-1.104-2.543-2.146-4.941-3.202-6.617c-3.938-6.225-9.471-12.801-20.654-14.375c-1.807-0.254-3.451-0.379-5.033-0.379
				c-3.192,0-5.622,0.519-7.973,1.018c-2.314,0.491-4.709,1-8.188,1.092l-3.36,0.09l-0.047,3.359
				c-0.242,17.857-0.519,38.006,5.28,67.521c4.264,21.707,9.896,32.823,18.252,36.044c2.474,0.953,5.729,1.659,8.689,2.278
				c-7.59,2.724-18.856,5.75-32.804,7.889c-7.188,1.102-14.173,1.684-20.19,1.684c-6.488,0-10.291-0.646-12.431-1.258
				c1.349-1.362,3.646-3.146,5.621-4.153c6.68-3.403,13.063-17.931,13.896-27.687c2.977-34.898,1.084-64.43-5.625-87.77
				C139.858,6226.414,137.476,6220.543,135.946,6216.956z"/>
		</g>
		<g id="g4_25_" transform="matrix(1 0 0 -1 0 6552)">
			
				<linearGradient id="SVGID_5_" gradientUnits="userSpaceOnUse" x1="366.0632" y1="23515.2227" x2="366.0632" y2="23362.1445" gradientTransform="matrix(1 0 0 1 572.541 -17151.0645)">
				<stop  offset="0.7152" style="stop-color:#2F66B1"/>
				<stop  offset="1" style="stop-color:#1E427F"/>
			</linearGradient>
			<path fill="url(#SVGID_5_)" d="M902.918,6211.081c-3.652,0-5.344,0.454-6.891,0.961l-3.309,1.081l1.063,3.312
				c0.24,0.752,0.629,1.646,1.215,3.002c1.49,3.438,3.984,9.194,6.74,18.787c6.475,22.521,8.283,51.197,5.379,85.24
				c-0.803,9.408-6.863,20.396-10.104,22.045c-0.104,0.055-10.443,5.584-10.494,11.354c-0.018,1.867,0.998,3.524,2.717,4.438
				c4.438,2.36,12.109,2.856,17.77,2.856c6.365,0,13.715-0.608,21.25-1.767c19.256-2.949,33.793-7.623,40.979-11.014
				c3.076-1.454,3.523-3.439,3.357-4.854c-0.42-3.551-4.246-4.351-10.588-5.674c-2.848-0.595-6.076-1.27-8.18-2.078
				c-5.625-2.168-10.303-12.551-13.898-30.86c-5.318-27.077-5.396-46.164-5.189-62.84c2.414-0.247,4.334-0.653,6.092-1.026
				c2.18-0.463,4.061-0.861,6.52-0.861c1.252,0,2.578,0.104,4.059,0.311c7.873,1.107,11.979,5.272,15.717,11.188
				c0.768,1.214,1.748,3.477,2.695,5.659c2.797,6.44,5.006,11.528,9.258,11.528c1.402,0,2.738-0.636,3.76-1.791
				c5.66-6.408,7.938-14.858,7.855-29.179c-0.092-15.638-0.695-18.828-1.797-24.621l-0.813-4.362h-2.908
				c-2.469,0-5.092,0.524-8.41,1.188c-5.779,1.155-13.697,2.739-26.5,2.739l-0.75-0.002c-12.029-0.061-18.01-1.133-24.338-2.271
				c-3.469-0.624-7.053-1.27-11.73-1.775C908.998,6211.315,905.557,6211.081,902.918,6211.081z M902.041,6218.092
				c0.27-0.007,0.563-0.011,0.877-0.011c2.385,0,5.576,0.221,9.76,0.674c4.438,0.479,7.9,1.104,11.248,1.707
				c6.639,1.19,12.904,2.317,25.545,2.381l0.783,0.002c13.494,0,22.146-1.73,27.873-2.877c1.564-0.313,2.957-0.59,4.186-0.781
				c0.832,4.523,1.293,8.297,1.369,21.754c0.076,12.979-2.027,18.912-4.625,22.641c-0.941-1.695-2.061-4.271-2.82-6.025
				c-1.105-2.543-2.146-4.941-3.203-6.613c-3.938-6.227-9.469-12.801-20.654-14.377c-1.807-0.254-3.451-0.377-5.033-0.377
				c-3.191,0-5.623,0.518-7.973,1.016c-2.314,0.492-4.709,1-8.189,1.092l-3.359,0.09l-0.047,3.361
				c-0.244,17.855-0.521,38.006,5.277,67.521c4.268,21.705,9.896,32.821,18.252,36.043c2.475,0.953,5.73,1.658,8.691,2.278
				c-7.594,2.724-18.861,5.75-32.807,7.888c-7.188,1.103-14.172,1.685-20.188,1.685c-6.49,0-10.291-0.647-12.432-1.26
				c1.35-1.36,3.645-3.146,5.619-4.151c6.682-3.403,13.064-17.933,13.896-27.687c2.979-34.896,1.086-64.426-5.625-87.771
				C905.955,6227.552,903.574,6221.681,902.041,6218.092z"/>
		</g>
		<g id="g4_24_" transform="matrix(1 0 0 -1 0 6552)">
			
				<linearGradient id="SVGID_6_" gradientUnits="userSpaceOnUse" x1="-296.1921" y1="23512.5801" x2="-296.1921" y2="23364.9453" gradientTransform="matrix(1 0 0 1 572.541 -17151.0645)">
				<stop  offset="0.7152" style="stop-color:#2F66B1"/>
				<stop  offset="1" style="stop-color:#1E427F"/>
			</linearGradient>
			<path fill="url(#SVGID_6_)" d="M272.297,6213.882c-1.625,0-3.342,0.027-5.104,0.086c-10.354,0.334-18.116,4.031-26.789,12.762
				c-5.487,5.525-11.11,16.795-12.108,22.441c-2.263,12.793-2.864,23.941-2.223,41.135c0.512,13.703,2.422,24.782,6.014,34.863
				c3.534,9.924,8.463,17.354,16.479,24.848c8.736,8.168,15.369,10.182,25.284,11.205c1.896,0.195,3.702,0.294,5.369,0.294
				c6.616,0,10.771-1.515,14.792-3.202c5.073-2.13,10.999-5.23,16.479-12.083c4.935-6.169,7.685-10.592,10.938-20.492
				c3.325-10.112,5.073-16.188,5.38-33.333c0.313-17.454-0.565-25.866-4.268-40.914c-3.675-14.948-8.722-25.12-23.646-32.872
				C292.675,6215.388,284.221,6213.882,272.297,6213.882z M279.218,6354.517c-1.43,0-2.993-0.086-4.649-0.258
				c-8.72-0.896-13.853-2.463-21.226-9.354c-7.238-6.77-11.486-13.165-14.665-22.083c-3.39-9.521-5.121-19.628-5.609-32.774
				c-0.711-19.021,0.282-29.272,2.12-39.653c0.702-3.978,5.646-14.161,10.183-18.728c7.376-7.424,13.559-10.424,22.048-10.699
				c13.246-0.431,22.39,0.82,28.25,3.867c11.237,5.838,16.304,12.984,20.075,28.332c3.567,14.514,4.367,22.188,4.063,39.117
				c-0.287,16.17-1.836,21.558-5.028,31.271c-2.896,8.806-5.072,12.45-9.755,18.308c-4.488,5.609-9.248,8.123-13.725,10.002
				C287.716,6353.365,284.549,6354.517,279.218,6354.517z M282.666,6246.177h-0.002c-5.322,0-10.914,1.834-15.339,5.03
				c-7.846,5.669-12.053,13.479-12.167,22.584c-0.011,0.829-0.025,1.696-0.042,2.603c-0.132,7.49-0.313,17.75,1.854,29.336
				c2.08,11.119,5.543,22.109,16.708,27.205c3.74,1.709,7.56,2.574,11.347,2.574c4.352,0,8.341-1.193,10.941-3.276
				c4.031-3.229,7.354-7.521,10.445-17.976c2.966-10.012,2.703-17.391,2.307-28.559l-0.102-2.906
				c-0.367-11.004-1.978-22.361-11.171-30.903C293.426,6248.149,288.314,6246.177,282.666,6246.177z M285.023,6328.508
				c-2.738,0-5.656-0.671-8.438-1.94c-6.763-3.086-10.332-9.291-12.732-22.125c-2.036-10.888-1.862-20.732-1.735-27.926
				c0.017-0.916,0.032-1.797,0.042-2.638c0.087-6.897,3.205-12.617,9.269-16.998c3.259-2.354,7.354-3.705,11.239-3.705h0.002
				c2.686,0,6.604,0.666,10.018,3.839c6.911,6.421,8.571,15.042,8.938,26.012l0.104,2.92c0.387,10.854,0.618,17.406-2.021,26.324
				c-2.865,9.682-5.578,12.471-8.108,14.496C290.54,6327.606,288.26,6328.508,285.023,6328.508z"/>
		</g>
		<g id="g4_23_" transform="matrix(1 0 0 -1 0 6552)">
			
				<linearGradient id="SVGID_7_" gradientUnits="userSpaceOnUse" x1="-186.5867" y1="23531.9648" x2="-186.5867" y2="23363.0586" gradientTransform="matrix(1 0 0 1 572.541 -17151.0645)">
				<stop  offset="0.7152" style="stop-color:#2F66B1"/>
				<stop  offset="1" style="stop-color:#1E427F"/>
			</linearGradient>
			<path fill="url(#SVGID_7_)" d="M385.617,6211.994c-3.661,0-6.924,0.563-9.695,1.677c-12.368,4.963-19.82,19.275-24.918,47.859
				c-6.501,36.455-9.354,49.576-15.731,66.264c-1.265,3.305-5.521,8.339-9.281,12.781c-1.71,2.021-3.479,4.107-5.007,6.07
				l-3.354,4.307l5.313,1.252c0.982,0.23,2.057,0.143,3.145-0.008c0.87-0.121,1.953-0.271,3.675-0.271
				c5.122,0,12.792,1.354,22.796,4.025c14.166,3.785,24.202,5.703,29.828,5.703c1.567,0,5.733,0,7.292-3.098
				c0.509-1.012,1.07-3.1-0.877-5.725c-0.671-0.902-1.354-1.797-2.037-2.689c-4.146-5.428-8.063-10.553-9.439-18.334
				c-3.407-19.256-6.833-55.406,8.493-81.168c1.443-2.43,4.09-3.998,6.737-3.998c1.471,0,2.778,0.475,3.896,1.408
				c3.671,3.08,7.438,10.207,5.631,56.078c-1.383,35.125-4.021,50.799-9.412,55.904c-10.265,9.723-10.297,12.176-10.314,13.643
				c-0.016,1.176,0.419,2.266,1.224,3.064c2.806,2.799,8.39,4.16,17.074,4.16c6.207,0,13.722-0.771,19.143-1.963
				c4.513-0.994,9.271-1.211,13.872-1.422c3.49-0.16,7.1-0.326,10.643-0.824l9.97-1.396l-8.687-5.088
				c-3.724-2.182-6.116-4.039-7.959-11.461c-2.248-9.051-4.371-17.602-5.023-41.279c-0.115-4.17-0.22-8.246-0.318-12.211
				c-0.443-17.588-0.826-32.777-1.979-44.908c-1.66-17.457-6.296-29.58-14.167-37.063
				C409.36,6216.849,396.241,6211.994,385.617,6211.994z M331.445,6344.964c4.284-5.064,8.688-10.291,10.362-14.67
				c6.583-17.225,9.493-30.573,16.085-67.535c4.562-25.559,10.924-38.695,20.635-42.592c1.938-0.777,4.324-1.173,7.089-1.173
				c9.784,0,20.955,4.86,25.692,9.365c6.596,6.269,10.526,16.948,12.021,32.651c1.132,11.888,1.513,26.965,1.952,44.422
				c0.102,3.973,0.203,8.053,0.318,12.229c0.676,24.438,2.888,33.344,5.229,42.773c1.114,4.484,2.514,7.604,4.309,10.006
				c-0.595,0.026-1.193,0.057-1.8,0.084c-4.896,0.224-9.958,0.457-15.056,1.578c-3.773,0.83-10.658,1.799-17.64,1.799
				c-5.583,0-8.682-0.625-10.35-1.197c1.147-1.486,3.354-3.961,7.183-7.586c6.199-5.873,9.884-17.287,11.593-60.711
				c1.771-44.924-1.35-56.029-8.127-61.717c-2.375-1.992-5.276-3.045-8.394-3.045c-5.146,0-10.032,2.844-12.754,7.42
				c-16.483,27.707-12.946,65.754-9.37,85.965c1.673,9.459,6.299,15.512,10.771,21.365c0.062,0.08,0.121,0.158,0.183,0.236
				c-3.854-0.168-11.583-1.318-27.021-5.441C344.622,6346.59,337.095,6345.201,331.445,6344.964z"/>
		</g>
		<g id="g4_22_" transform="matrix(1 0 0 -1 0 6552)">
			
				<linearGradient id="SVGID_8_" gradientUnits="userSpaceOnUse" x1="-73.8577" y1="23522.0332" x2="-73.8577" y2="23362.3457" gradientTransform="matrix(1 0 0 1 572.541 -17151.0645)">
				<stop  offset="0.7152" style="stop-color:#2F66B1"/>
				<stop  offset="1" style="stop-color:#1E427F"/>
			</linearGradient>
			<path fill="url(#SVGID_8_)" d="M449.317,6211.281c-4.759,0-6.145,2.726-6.52,3.896c-1.172,3.658,1.922,7.875,5.507,10.435
				c4.64,3.31,9.45,7.819,12.85,23.207c1.024,4.646,0.794,19.254,0.591,32.146c-0.086,5.379-0.166,10.459-0.166,14.929
				c0,1.626,0.006,3.233,0.012,4.821c0.063,16.149,0.113,30.101-6.244,43.724c-4.693,10.063-8.223,13.869-9.919,15.696
				c-1.121,1.209-2.812,3.035-1.768,5.535c2.222,5.299,9.453,5.299,11.829,5.299c7.686,0,18.012-2.434,24.182-3.885
				c1.139-0.27,2.134-0.502,2.938-0.683c8.166-1.806,18.417-5.004,31.34-9.784c16.452-6.085,25.521-13.717,32.343-27.223
				c15.015-29.725,8.402-64.188-5.89-82.869c-16.466-21.521-32.23-27.334-50.839-29.439c-11.103-1.257-23.223-3.055-37.056-5.491
				C451.334,6211.388,450.26,6211.281,449.317,6211.281z M451.711,6363.621c2.175-2.476,5.688-7.032,9.979-16.229
				c7.019-15.041,6.961-30.424,6.898-46.709c-0.007-1.58-0.013-3.179-0.013-4.795c0-4.414,0.08-9.467,0.165-14.815
				c0.229-14.562,0.449-28.315-0.754-33.767c-3.537-16.018-8.804-22.537-15.619-27.396c-0.702-0.502-1.278-1.035-1.727-1.524
				c0.207,0.027,0.424,0.063,0.649,0.104c13.976,2.463,26.233,4.276,37.479,5.552c17.312,1.962,31.056,7.119,46.066,26.741
				c12.966,16.944,18.916,48.31,5.2,75.458c-6.006,11.893-13.735,18.346-28.521,23.813c-12.62,4.666-22.57,7.777-30.422,9.515
				c-0.831,0.185-1.856,0.425-3.034,0.702c-5.873,1.383-15.704,3.698-22.574,3.698
				C453.732,6363.963,452.527,6363.81,451.711,6363.621z M503.234,6241.017C503.233,6241.017,503.234,6241.017,503.234,6241.017
				l-0.265,0.002c-7.055,0.113-12.733,7.584-15.992,21.037c-1.852,7.646-1.351,19.604-0.984,28.34l0.1,2.42
				c0.59,15.103,0.945,24.213,3.287,35c1.255,5.783,6.948,9.521,14.505,9.521c8.055,0,17.854-4.621,21.602-14.943
				c5.428-14.959,8.651-44.408,4.64-55.187C526.5,6257.478,516.759,6241.017,503.234,6241.017z M503.884,6330.333
				c-3.382,0-7.063-1.238-7.665-4.004c-2.211-10.188-2.559-19.068-3.133-33.787l-0.101-2.439c-0.328-7.85-0.823-19.713,0.795-26.396
				c2.595-10.716,6.641-15.645,9.302-15.688l0.15-0.002c9.005,0,17.091,12.938,20.33,21.631c3.155,8.479,0.631,35.771-4.66,50.354
				C516.315,6327.14,509.495,6330.333,503.884,6330.333z"/>
		</g>
		<g id="g4_21_" transform="matrix(1 0 0 -1 0 6552)">
			
				<linearGradient id="SVGID_9_" gradientUnits="userSpaceOnUse" x1="147.7947" y1="23520.1602" x2="147.7947" y2="23360.4805" gradientTransform="matrix(1 0 0 1 572.541 -17151.0645)">
				<stop  offset="0.7152" style="stop-color:#2F66B1"/>
				<stop  offset="1" style="stop-color:#1E427F"/>
			</linearGradient>
			<path fill="url(#SVGID_9_)" d="M670.967,6209.417c-4.758,0-6.145,2.727-6.52,3.896c-1.17,3.66,1.924,7.877,5.51,10.432
				c4.637,3.309,9.449,7.824,12.846,23.206c1.027,4.647,0.797,19.258,0.594,32.147c-0.088,5.377-0.166,10.455-0.166,14.924
				c0,1.623,0.006,3.229,0.012,4.813c0.063,16.151,0.113,30.104-6.242,43.729c-4.695,10.063-8.225,13.869-9.922,15.696
				c-1.119,1.208-2.813,3.035-1.768,5.536c2.223,5.298,9.453,5.298,11.83,5.298c7.688,0,18.016-2.433,24.186-3.885
				c1.139-0.269,2.131-0.502,2.936-0.681c8.164-1.806,18.416-5.004,31.342-9.785c16.449-6.082,25.52-13.715,32.344-27.221
				c15.016-29.727,8.4-64.188-5.895-82.87c-16.465-21.521-32.23-27.335-50.838-29.438c-11.09-1.256-23.209-3.054-37.055-5.492
				C672.987,6209.522,671.912,6209.417,670.967,6209.417z M673.362,6361.757c2.176-2.477,5.688-7.032,9.979-16.229
				c7.021-15.045,6.961-30.432,6.898-46.717c-0.006-1.578-0.014-3.174-0.014-4.789c0-4.412,0.08-9.465,0.166-14.813
				c0.23-14.563,0.447-28.319-0.756-33.771c-3.535-16.018-8.801-22.535-15.619-27.396c-0.701-0.502-1.277-1.035-1.725-1.523
				c0.207,0.026,0.424,0.062,0.648,0.104c13.984,2.465,26.246,4.281,37.479,5.553c17.311,1.961,31.053,7.117,46.066,26.739
				c12.967,16.946,18.916,48.31,5.201,75.459c-6.01,11.892-13.738,18.345-28.521,23.812c-12.621,4.668-22.572,7.78-30.422,9.517
				c-0.83,0.185-1.855,0.424-3.029,0.701c-5.875,1.384-15.707,3.699-22.578,3.699
				C675.383,6362.101,674.176,6361.944,673.362,6361.757z M724.885,6239.151c-0.002,0-0.002,0-0.002,0l-0.266,0.002
				c-7.057,0.112-12.732,7.586-15.99,21.039c-1.852,7.64-1.352,19.596-0.984,28.326l0.102,2.432
				c0.59,15.104,0.947,24.221,3.285,34.999c1.256,5.784,6.949,9.521,14.506,9.521c8.055,0,17.854-4.621,21.602-14.941
				c5.43-14.963,8.65-44.414,4.639-55.188C748.151,6255.612,738.41,6239.151,724.885,6239.151z M725.535,6328.47
				c-3.383,0-7.064-1.236-7.666-4.006c-2.207-10.179-2.557-19.062-3.131-33.787l-0.104-2.449
				c-0.326-7.848-0.822-19.705,0.795-26.387c2.598-10.717,6.643-15.645,9.303-15.688l0.15-0.002c9.004,0,17.09,12.936,20.328,21.629
				c3.158,8.476,0.635,35.771-4.656,50.354C737.965,6325.274,731.145,6328.47,725.535,6328.47z"/>
		</g>
		<g id="g4_20_" transform="matrix(1 0 0 -1 0 6552)">
			
				<linearGradient id="SVGID_10_" gradientUnits="userSpaceOnUse" x1="39.4392" y1="23523.5371" x2="39.4392" y2="23361.7383" gradientTransform="matrix(1 0 0 1 572.541 -17151.0645)">
				<stop  offset="0.7152" style="stop-color:#2F66B1"/>
				<stop  offset="1" style="stop-color:#1E427F"/>
			</linearGradient>
			<path fill="url(#SVGID_10_)" d="M616.838,6210.675c-10.613,0-18.498,3.152-25.57,10.223c-5.936,5.937-7.908,11.002-10.195,16.869
				c-1.619,4.15-3.453,8.856-7.158,14.92c-1.637,2.676-3.939,4.42-6.166,6.107c-3.1,2.348-6.303,4.775-7.395,9.325l-0.852,3.551
				l3.582,0.7c0.869,0.171,1.748,0.359,2.674,0.559c5.246,1.127,12.436,2.672,28.531,3.076l0.084,0.002l0.084-0.002
				c12.459-0.285,17.336-0.737,19.131-4.422c1.594-3.271-0.771-6.438-3.275-9.793c-3.199-4.287-6.291-10.235-2.82-14.24
				c1.396-1.61,4.266-2.652,7.307-2.652c1.998,0,3.938,0.438,5.604,1.264c4.428,2.188,9.65,8.512,9.805,19.123
				c0.152,10.849-5.896,13.547-23.4,19.756c-13.902,4.932-27.445,11.162-32.357,23.264c-5.275,12.998-3.385,31.573,4.396,43.208
				c8.107,12.12,18.805,18.265,31.789,18.265c1.521,0,3.096-0.088,4.672-0.261c10.025-1.101,13.129-3.304,15.395-4.912
				c0.971-0.69,1.457-1.036,2.486-1.25c0.516-0.106,0.982-0.158,1.438-0.158l0,0c1.389,0,3.559,0.442,8.061,3.894
				c5.826,4.467,9.229,5.383,12.543,5.383c0.246,0,0.486-0.006,0.729-0.014l4.035-0.137l-0.707-3.977
				c-0.244-1.375-0.746-2.797-1.277-4.305c-1.355-3.847-2.896-8.205-1.299-13.912c2.766-9.892,1.898-16.767-0.664-25.992
				l-1.303-4.688l-4.029,2.725c-1.74,1.181-2.75,2.785-3.725,4.34c-1.238,1.979-2.521,4.022-5.699,5.965
				c-5.318,3.252-12.125,5.192-18.205,5.192c-2.188,0-4.236-0.247-6.09-0.731c-5.393-1.414-9.754-4.285-11.674-7.679
				c-0.604-1.065-1.221-2.679-0.738-4.319c1.875-6.401,7.172-9.861,18.893-12.34c9.326-1.973,22.846-6.973,30.252-14.57
				c8.414-8.633,11.738-20.107,10.471-36.117c-1.035-13.033-2.428-22.566-11.934-35.854c-9.006-12.58-19.973-15.211-34.748-15.377
				L616.838,6210.675z M569.299,6266.522c0.719-0.654,1.607-1.342,2.674-2.149c2.488-1.885,5.584-4.231,7.912-8.037
				c4.029-6.592,5.982-11.604,7.707-16.028c2.164-5.554,3.73-9.563,8.625-14.459c5.809-5.806,11.781-8.174,20.621-8.174l0.592,0.004
				c15.242,0.17,22.596,3.313,29.133,12.451c8.477,11.847,9.678,20.117,10.646,32.334c1.102,13.851-1.604,23.598-8.504,30.681
				c-5.906,6.062-17.658,10.699-26.688,12.606c-10.076,2.129-20.83,5.842-24.164,17.225c-0.924,3.152-0.449,6.521,1.365,9.73
				c2.873,5.08,8.701,9.09,15.99,11.002c2.434,0.64,5.078,0.961,7.865,0.961c7.424,0,15.391-2.268,21.854-6.221
				c2.852-1.741,4.688-3.607,6.014-5.322c0.811,4.918,0.639,9.314-0.984,15.114c-1.807,6.459-0.639,11.802,0.639,15.774
				c-1.002-0.572-2.203-1.373-3.66-2.49c-4.881-3.74-8.563-5.336-12.314-5.336l0,0c-0.939,0-1.871,0.1-2.857,0.304
				c-2.469,0.513-3.877,1.515-5.121,2.397c-1.729,1.229-3.883,2.758-12.102,3.66c-12.291,1.35-22.338-3.664-29.879-14.938
				c-7.256-10.843-7.594-27.166-3.73-36.683c3.129-7.711,11.305-13.304,28.213-19.299c17.037-6.043,28.291-10.033,28.063-26.451
				c-0.197-13.771-7.504-22.235-13.701-25.301c-2.627-1.299-5.639-1.984-8.707-1.984c-5.137,0-9.844,1.896-12.596,5.068
				c-2.945,3.397-6.537,10.908,2.504,23.016c0.395,0.523,1.096,1.467,1.645,2.29c-3.031,0.524-9.24,0.673-11.969,0.733
				C580.949,6268.663,574.268,6267.552,569.299,6266.522z"/>
		</g>
		<g id="g4_19_" transform="matrix(1 0 0 -1 0 6552)">
			
				<linearGradient id="SVGID_11_" gradientUnits="userSpaceOnUse" x1="257.6257" y1="23519.4902" x2="257.6257" y2="23352.0313" gradientTransform="matrix(1 0 0 1 572.541 -17151.0645)">
				<stop  offset="0.7152" style="stop-color:#2F66B1"/>
				<stop  offset="1" style="stop-color:#1E427F"/>
			</linearGradient>
			<path fill="url(#SVGID_11_)" d="M829.733,6200.967c-1.193,0-2.111,0.237-2.889,0.746c-1.125,0.735-1.885,1.87-2.139,3.19
				c-0.484,2.527,1.006,5.021,2.168,6.676c0.449,0.642,0.813,1.146,1.197,1.684c0.91,1.268,1.939,2.705,4.088,5.891
				c4.482,6.658,6.744,14.102,6.721,22.115c-0.021,6.754-0.578,13.236-1.223,17.285c-3.484,0.426-6.73,0.467-11.682,0.346
				c-3.311-0.084-7.059-0.924-8.313-1.445c-0.143-0.354-0.395-1.307-0.271-3.381c0.271-4.725,0.557-9.605,4.33-14.854
				c3.049-4.233,4.383-5.319,5.455-6.19c0.176-0.146,0.346-0.283,0.51-0.422c1.799-1.521,2.279-3.937,1.254-6.304
				c-0.824-1.91-2.947-3.078-6.881-3.785c-2.51-0.451-10.77-0.86-17.328-0.86c-2.965,0-5.506,0.076-7.557,0.229
				c-15.723,1.154-20.443,3.104-23.934,5c-1.07,0.582-1.766,1.604-2.063,3.027c-0.625,3.023,0.344,8.73,5.145,14.867
				c1.623,2.074,3.143,3.848,4.609,5.559c3.586,4.176,6.418,7.477,8.617,12.744c1.771,4.24,7.764,19,10.564,30.895
				c3.854,16.361,5.715,28.93,5.529,37.354c-0.137,6.24-0.857,6.793-4.332,9.453l-0.145,0.109c-1.846,1.414-4.373,2.396-6.402,3.186
				c-0.846,0.328-1.643,0.639-2.344,0.957c-1.109,0.504-4.785,2.361-5.492,5.127c-0.297,1.146-0.066,2.334,0.623,3.258
				c1.77,2.355,4.984,5.063,14.262,5.096c9.699,0.035,15.785,0.314,28.074,5.688c6.586,2.879,11.137,4.221,14.316,4.221
				c2.676,0,4.748-0.93,6.156-2.758c2.123-2.764,3.791-12.064,4.959-27.654c1.191-15.916,3.252-33.324,6.299-53.219
				c2.619-17.112,6.156-35.318,14.229-52.513c2.002-4.263,4.822-7.733,7.811-11.415c1.596-1.964,3.244-3.995,4.762-6.159
				c0.916-1.306,1.154-2.997,0.645-4.526c-0.504-1.506-1.684-2.688-3.15-3.166c-1.387-0.449-3.127-0.658-5.479-0.658
				c-2.625,0-5.604,0.272-8,0.494c-1.076,0.101-2.061,0.188-2.887,0.246c-2.109,0.138-4.033,0.205-5.879,0.205
				c-6.654,0-11.895-0.863-19.813-2.563c-3.043-0.653-7.961-2.362-9.408-2.911C833.373,6201.401,831.352,6200.967,829.733,6200.967z
				 M830.281,6265.962c4.092,0,7.146-0.236,10.904-0.842l2.322-0.374l0.529-2.293c0.867-3.754,1.813-11.979,1.842-21.165
				c0.029-9.439-2.635-18.204-7.914-26.047c-2.205-3.271-3.27-4.753-4.207-6.061c-0.059-0.082-0.113-0.16-0.172-0.239
				c2.229,0.78,5.992,2.022,8.805,2.626c10.479,2.25,17.146,3.186,27.615,2.498c0.875-0.057,1.928-0.152,3.07-0.259
				c2.369-0.218,5.055-0.465,7.355-0.465c0.096,0,0.188,0,0.273,0.001c-0.797,1.023-1.627,2.046-2.48,3.1
				c-3.119,3.846-6.348,7.816-8.711,12.854c-8.447,17.996-12.109,36.794-14.811,54.427c-3.074,20.074-5.154,37.658-6.359,53.754
				c-1.229,16.408-2.906,22.666-3.521,23.88c-0.09,0.021-0.279,0.06-0.611,0.06c-1.461,0-4.645-0.631-11.518-3.633
				c-13.26-5.795-20.5-6.235-30.854-6.272c-2.225-0.008-4.053-0.19-5.479-0.543c0.299-0.119,0.613-0.241,0.941-0.369
				c2.316-0.899,5.488-2.134,8.125-4.153l0.143-0.106c4.514-3.454,6.877-5.687,7.072-14.856c0.199-9.142-1.67-21.935-5.713-39.109
				c-2.926-12.413-9.1-27.62-10.922-31.984c-2.625-6.291-6.094-10.33-9.766-14.604c-1.418-1.65-2.887-3.359-4.408-5.313
				c-3-3.836-3.666-6.756-3.793-8.178c2.467-1.127,7.053-2.5,19.643-3.426c1.881-0.139,4.25-0.209,7.043-0.209
				c7.049,0,14.197,0.438,16.01,0.736c-1.137,1.137-2.617,2.848-4.697,5.736c-4.967,6.9-5.338,13.354-5.637,18.541
				c-0.236,4.098,0.479,6.879,2.248,8.756c2.518,2.67,11.014,3.416,13.146,3.473C827.455,6265.937,828.92,6265.962,830.281,6265.962
				z M818.608,6275.276h-4.469l1.066,4.336c0.021,0.082,2.063,8.345,5.688,20.979c2.68,9.334,7.752,19.963,13.957,21.805
				l4.234,1.254l0.254-4.408c0.381-6.602,0.924-13.16,1.496-20.104c0.518-6.264,1.053-12.734,1.473-19.379l0.201-3.186l-3.148-0.494
				c-2.051-0.324-6.352-0.604-10.695-0.705C824.391,6275.281,818.662,6275.276,818.608,6275.276z M832.856,6311.22
				c-1.719-2.814-3.633-6.979-5.232-12.558c-2.027-7.071-3.555-12.751-4.5-16.362c1.729,0.018,3.688,0.039,5.383,0.078
				c2.498,0.059,4.797,0.17,6.596,0.301c-0.373,5.412-0.811,10.724-1.236,15.885C833.504,6302.894,833.158,6307.074,832.856,6311.22
				z"/>
		</g>
		<g id="g4_18_" transform="matrix(1 0 0 -1 0 6552)">
			
				<linearGradient id="SVGID_12_" gradientUnits="userSpaceOnUse" x1="474.2263" y1="23512.209" x2="474.2263" y2="23361.5859" gradientTransform="matrix(1 0 0 1 572.541 -17151.0645)">
				<stop  offset="0.7152" style="stop-color:#2F66B1"/>
				<stop  offset="1" style="stop-color:#1E427F"/>
			</linearGradient>
			<path fill="url(#SVGID_12_)" d="M1081.709,6210.522c-7.066,0-16.887,0.416-31.834,1.349c-13.322,0.83-22.871,1.217-30.049,1.217
				c-6.191,0-10.795-0.28-14.484-0.882c-1.801-0.294-3.424-0.443-4.818-0.443c-0.006,0-0.01,0-0.014,0
				c-1.184,0-4.727,0.01-6.346,2.453c-0.805,1.211-0.932,2.69-0.352,4.063c0.627,1.478,1.369,3.093,2.23,4.965
				c4.072,8.847,10.229,22.215,12.979,41.188c2.682,18.482,1.936,49.345-3.451,65.818c-0.535,1.641-3.643,10.354-12.273,21.111
				l-4.566,5.69h7.297c5.473,0,11.51-0.332,26.176-2.026c14.463-1.672,20.447-2.362,37.938-3.977
				c2.65-0.244,5.117-0.368,7.338-0.368c9.9,0,13.494,2.339,16.975,4.601l0.551,0.357c0.539,0.348,1.277,1.01,1.994,1.65
				c2.021,1.809,4.307,3.854,7.186,3.854c1.064,0,2.068-0.284,2.982-0.847c2.373-1.455,4.232-4.314,6.605-28.022
				c2.477-24.752,0.061-28.534-2.619-30.286c-0.615-0.4-1.332-0.617-2.064-0.617c-2.299,0-3.432,1.701-5,4.059
				c-0.975,1.461-2.307,3.465-4.164,5.692c-3.004,3.604-6.73,5.271-14.52,8.229c-7.26,2.754-24.785,6.117-34.896,6.117
				c-0.002,0-0.004,0-0.004,0c0.389-3.08,0.688-7.184,0.865-12.021c0.082-2.168,0.152-5.023,0.223-7.759
				c0.049-1.935,0.098-3.901,0.146-5.472c0.973-0.107,1.996-0.164,3.061-0.164c4.861,0,9.646,1.131,12.508,2.188
				c3.959,1.466,5.93,3.455,7.365,4.908c1.182,1.188,2.396,2.421,4.338,2.421c0.809,0,1.598-0.236,2.281-0.688
				c3.855-2.523,4.813-11.334,2.223-20.487c-1.867-6.599-0.529-12.157,0.354-15.836c0.563-2.336,0.967-4.022,0.561-5.647
				c-0.445-1.774-1.998-2.971-3.859-2.972c-1.695,0-3.314,0.942-6,2.506c-2.443,1.424-5.484,3.192-7.891,3.69
				c-3.582,0.742-7.768,1.119-12.439,1.119c-1.283,0-2.438-0.026-3.422-0.063c-0.1-1.059-0.195-2.15-0.295-3.273
				c-0.756-8.527-1.67-18.857-4.617-27.871c1.555-0.131,3.426-0.195,5.635-0.195c4.334,0,10.129,0.24,19.371,0.805
				c11.215,0.684,20.971,11.813,24.563,17.604c0.9,1.454,5.643,8.703,10.395,8.703c1.717,0,3.229-0.952,3.939-2.483
				c2.432-5.244,1.807-14.244,0.768-23.188c-0.107-0.956-0.246-1.98-0.389-3.063c-0.895-6.74-2.002-15.129,0.846-21.789l1.816-4.244
				l-4.576-0.604C1093.082,6210.919,1088.709,6210.522,1081.709,6210.522z M1019.828,6220.088c7.326,0,17.014-0.392,30.482-1.229
				c14.799-0.924,24.48-1.334,31.396-1.334c4.725,0,8.102,0.183,11.457,0.521c-1.75,7.313-0.715,15.129,0.076,21.107
				c0.137,1.043,0.27,2.03,0.375,2.953c0.424,3.644,1.297,11.183,0.65,16.203c-0.844-0.883-1.846-2.112-2.85-3.729
				c-1.258-2.026-12.789-19.853-30.082-20.901c-9.395-0.57-15.313-0.814-19.799-0.814c-5.271,0-8.775,0.335-11.367,1.085
				l-3.793,1.101l1.547,3.635c3.762,8.834,4.793,20.496,5.623,29.865c0.203,2.279,0.396,4.442,0.609,6.432l0.34,3.122h3.141
				c0.303,0,0.771,0.021,1.381,0.045c1.223,0.049,3.064,0.122,5.223,0.122c5.146,0,9.813-0.425,13.859-1.264
				c2.895-0.602,5.834-2.119,8.389-3.571c-0.883,4.163-1.646,10.03,0.293,16.88c1.258,4.443,1.35,7.938,1.082,10.21
				c-1.74-1.543-4.316-3.423-8.123-4.833c-1.662-0.615-7.652-2.626-14.938-2.626c-2.6,0-5.035,0.271-7.25,0.797l-2.488,0.597
				l-0.189,2.551c-0.104,1.389-0.186,4.69-0.279,8.52c-0.064,2.705-0.137,5.527-0.217,7.671c-0.379,10.11-1.146,13.786-1.373,14.671
				l-0.967,3.775l3.857,0.556c1.289,0.187,2.842,0.278,4.613,0.278c11.105,0,29.527-3.597,37.375-6.571
				c8.037-3.047,13.221-5.263,17.412-10.291c0.934-1.117,1.734-2.168,2.436-3.131c0.164,3.498,0.047,9.358-0.928,19.104
				c-1.438,14.367-2.646,19.908-3.332,22.035c-0.6-0.457-1.309-1.092-1.811-1.539c-0.916-0.82-1.863-1.67-2.865-2.316l-0.527-0.344
				c-3.928-2.557-8.813-5.732-20.791-5.732c-0.002,0,0,0,0,0c-2.434,0-5.115,0.133-7.979,0.396
				c-17.574,1.619-23.584,2.313-38.104,3.992c-8.551,0.986-14.07,1.502-18.242,1.756c5.92-8.627,8.379-15.285,9.072-17.406
				c5.688-17.408,6.52-49.73,3.725-69c-2.895-19.977-9.307-33.896-13.549-43.109c-0.24-0.521-0.473-1.021-0.691-1.506
				c0.758,0.057,1.605,0.158,2.504,0.307C1008.287,6219.778,1013.248,6220.088,1019.828,6220.088z"/>
		</g>
	</g>
</g>
</svg>
